<svg xmlns="http://www.w3.org/2000/svg" viewBox="0 0 1800 1200"><defs><style>.cloud{fill:#5f5cb9;stroke:#000;stroke-miterlimit:10;stroke-width:0.25px;opacity:0.25;}</style></defs><title>cloud</title><path id="cloud-5" class="cloud" d="M86.47,438.08s9.5-4.5,12-5.5,5.5-4,7.25-4.75,11.75-5.25,13-5,11.5-3,14.25-3.75,12.5-2.25,17.5,0a40.31,40.31,0,0,0,12.75,3.25,16.1,16.1,0,0,1,7.5,2.25c3.25,1.75,8.75,1,11.75-.25s18-4.5,23.25-4.25,22.5,0.25,25.5.5,10,2.75,13.25.5,8.75-8,11-9,9.75-7.5,10.25-9,6.5-5.25,10-5,9.75,1.48,16,0,11.25-3.24,14.5-3.24,16.25,1.25,18,1.25,11.5,0.5,13.5,1,12,1.25,14.75.25,12-1.5,15-1,14,2.5,21.75-1.5S400,388.58,407,392.08s13,6.75,14.25,6.75,7.25,5.75,13.75,5,17-2.5,19.75-2.75,5.75-4,12-1.25A56,56,0,0,0,481,404.08c2.25,0.25,11,4.75,13.5,5s9,1.5,7.5,2.25-7.75-3.25-11.5.25-16.75,8.25-21.25,9.5-17.5,1.75-23.25,3.5-9.5,1-11.25,3.5-13.75,10-14,11.25-5.25,3.5-5.25,3.5-7.75-2.75-11,0-11.25,4.25-19,10-11.5,5.5-28,10.75-41.5,13-46.5,14-5.28,4-16.64,0-28.11-12.5-31.11-12.5-17.5-5.75-25.75-3-12.5-5-20.5-8.5-31-7.25-44-5.5-17.25-7.25-20.25-7.5-12.5-1-14.75-3-11.25-4.75-17.5-3.75-19.75,1-22.5,2.75S87.72,439.83,86.47,438.08Z"/><path id="cloud-4" class="cloud" d="M1205.35,445.11c3.16-1.55,7.11-.87,10.39-2.11,3.05-1.16,5.64-3.34,8.61-4.89,5.87-3.06,13.47-6.66,20-7,3.83-.2,8.67,2.33,12,1.52,2.54-.61,6-4.87,7.85-6.65,5.42-5.15,11.87-9.2,18.11-13,9.68-5.89,11.61,3.48,19.51,4.62,7.21,1,17.4-4,24.5-5.51,15.51-3.3,33.32-3.16,49.5-4,17.85-.91,35.77,0,53.5,0,16.89,0,32.39-5.78,49.5-3,14.71,2.36,21.75,19.87,38.53,15,15.69-4.53,33.18-1.12,48.37,3.11,17.47,4.87,37.19,3.36,55.61,4.28,8.56,0.43,16.59,1,25,.6,4.26-.21,7.91,0,11.89-1.1,3.49-.92,7.11-2.41,11.06-2.31-1.18,5.37-12.86,11.27-17.47,13.79-6.66,3.62-15.09,3-22.58,4.53-3.73.75-7.58,2.13-11.39,2.62-4,.52-7.87-0.79-11.39,1.6-5.49,3.72-10.24,9.72-16.09,13.51-7.14,4.63-14.29,8.67-22,11.39-7.21,2.54-12.48,7.4-20.52,7.48-4.43,0-6.11-1.67-9.87-3.12-3.53-1.36-7.22-1.52-10.73-2.76-7.65-2.71-14.42-5.82-22.89-7.1s-16.61.68-25,1c-9.31.34-18.7,0-28,0-17,0-31.94,1.22-46.61-6.86-6.43-3.54-11.51-11.21-18.5-12.53-4.82-.91-7.71,1-11.91,2.76-3.76,1.61-7.88,2.07-12.1,2.52a234.85,234.85,0,0,1-24.88,1.61c-4,0-8.62.65-12.5-.11-4.16-.81-8-3.66-12-4.39s-8.48.16-12.5,0-7.91-2.12-11.61-2.39c-6.73-.49-15.87,2-22.36,3.89-8.75,2.59-14.81-.53-23.53-0.5-3.64,0-8.08.64-11.39-.11-3.81-.87-5.93-3.91-10.11-4.39s-15.55,3.48-15.5-2.5Z"/><path id="cloud-3" class="cloud" d="M1127.29,692.64a17.83,17.83,0,0,1,5.75-.76c4.11,0.25,7.83,1.88,11.74,2.26,4.17,0.4,8.4-.4,12.49,0,3.54,0.35,8,2,10.7.19,3.13-2.13,5.95-5,9.57-6.19,4.22-1.42,6.88,2.21,11,2.76,4,0.54,9.09-2.58,12.75-3.77,3.95-1.29,8.38-.86,12.5-2.05a98.4,98.4,0,0,0,10.44-3.25c1.54-.63,4.07-1.85,5.82-1.44s2.61,2.45,4.24,3c4.53,1.54,6.83-2.19,10.26-3.52,4-1.54,7.89-.28,12-0.23s7.83-1.57,11.75-.75c1.78,0.37,2.93,1.43,4.56,2.19,1.94,0.91,4.15,1,6.19,1.63s3.63,1.64,5.75,1.69c2.41,0.06,3-1.06,4.51,1.24a10,10,0,0,1,1.2,3.21c-3.07,2.2-7.28,3.35-11,4.24-1.85.45-3.74,0.09-5.51,1s-2.49,2.42-3.93,3.87a48.9,48.9,0,0,1-4.57,3.7c-1.83,1.45-3.29,1.36-5.24,2.3s-2.76,2.24-5,2.69c-2,.4-4.41.71-6.49,1-5.06.73-7.85,0.1-11.77-3-3.61-2.81-5.8-3.92-10.24-2.81-4.18,1-6.87-1.92-10.5,1.75-4,4-6,1.24-10.75,1.75-4.45.48-6.42,5.24-11.26,3-1.9-.88-3.1-2.23-5.5-1.77-1.82.35-3.64,1.24-5.47,1.7-4,1-7.88,3.06-11.75,3.83-4.37.86-7.71-.12-12-0.82-2.12-.35-3.62-0.42-5.56-1.44-1.38-.72-2.85-1.58-4.23-2.26a25.51,25.51,0,0,1-4.81-2.69c-1.22-.95-2.23-2.53-3.45-3.31-3-1.92-7.4-1.5-11-1.5-2.88,0-14.73-.77-14.95-4.57-0.12-2,3.29-4.43,5-4.6C1123.14,690.71,1124.63,693.21,1127.29,692.64Z"/><path id="cloud-2" class="cloud" d="M618.75,379.05a5.23,5.23,0,0,0-2.41-.42c-0.79,1.78-.63,9.73.52,11.32,1.33,1.85,7.13,3.31,9.39,4.6,6.56,3.77,13.69,6.08,20.51,8.64,3.38,1.27,7,1.24,10,3.36,3.18,2.27,6.07,6.33,8.64,9.39,6,7.2,8.29,9.26,17.86,9.11,10.62-.17,11.45,5.71,17,12.89,5.12,6.61,10.68,11.79,16,18.06,6.12,7.15,9.45,11.14,19,12.53,3.65,0.53,7.33,1.82,11,2.42,4.09,0.67,8.07-.89,12-0.4,3.27,0.41,6.61,3.12,10,4,4.49,1.19,7.16.68,11.5-.61,4-1.2,7.64-2.54,12-1.39,4.12,1.09,7.41,4.15,12,2.5,3.68-1.31,5.22-4.6,9.48-5.5,3.19-.67,8.25-1.61,11.39-1.4,7,0.48,13.28,8.73,20.61,10.37,3.58,0.8,8.32,1.94,11.51,0s4.81-5.72,8-8c2.87-2.07,5.94-3.79,9.5-4,6.28-.38,5.29.44,9.1-4.51a20.09,20.09,0,0,1,9.37-6.51c3.21-1.05,8.2-.71,10.66-3.34,2.05-2.2,2.66-6.51,5-9.11,3.46-3.9,5.09-3.26,9.91-3,3.15,0.17,5.52-.55,8.87,2.1,3.19,2.52,3.23,4.57,7.6,5.37,7,1.3,13.21,2.81,20.93,2.43,0.89-4.42,5.31-3.63,8.57-5.05,4.29-1.86,5.79-4.15,7.5-7.87s1.84-5.75,6.47-7c4-1.08,7.65,1.11,10.9-.1,2.84-1.06,5.09-5.69,7.61-6.88,4.11-1.94,7.32,1,10.87,1.65,9.29,1.64,7.43-9.11.26-12.26-4.42-1.94-7-.55-11.62-0.38-3.72.14-7.62-1.26-11.5-1.5-8.95-.54-15.69-0.41-23.47,4.6-8,5.18-12.27,11.31-20.15,3.54-2.41-2.38-5.37-5.74-8.75-6.26-3.56-.54-6.55,1.66-10.12,2.23-8,1.27-15.5-2.72-22.61-4.5-8-2-16.5-.77-24.89-1.58-8.22-.8-17.19-3.6-25.39-5.14-7.88-1.48-15.66-4.58-23.64-5.36-17-1.65-34.95-.43-52-0.53-5.12,0-6.72-2.37-11-3.5-5.44-1.43-10.35,5.27-15.64,6.59-6.56,1.63-14.68,2.73-21.36,1.41-4-.79-8.36-4.5-12.5-4.53s-5.85,1.6-10.17-.71c-3.35-1.78-6-4.45-9.71-5.89-7.26-2.8-15.87-.88-23.62-2.37-4.1-.79-6.38-1.38-10.49-1.4a48,48,0,0,1-11-1.62c-8.89-2.21-16.3-5.49-26-5.49Z"/><path id="cloud-1" class="cloud" d="M535.51,659.81c2.39-4.33,8-4.87,10-10,1.79-4.44-.33-10.59,2.45-14.85,1.19-1.82,9.12-6.61,11.55-7,4.27-.67,9,2.8,14.63,2.52,5.1-.26,11.53.1,16.67-0.82,6-1.07,10.1-3.57,16.67-3.2,15.74,0.88,29.64,4,45.33,0,3.24-.81,7.59-1,10.64-2,8.57-2.65,14.53-3.25,24-.75,5.17,1.36,6.45,4.1,10.83,6.5,7.43,4.07,21.63.94,30.5,3,11.19,2.62,17.9,6.91,27.85,13.3,8.77,5.63,17.53,10.54,27,6.52,4.5-1.92,7.81-3.44,13.22-3.3,6.22,0.17,8,3.85,13.17,7.47,8.33,5.83,18.4,3.64,28.13,5.17,9.54,1.5,19,2.91,28.53-1.93,2,10.49-3.81,15.6-12.5,17.89-3.47.92-9.07,1.18-11.87,2.87-3.5,2.12-3.49,5.27-8.32,6.35-9.24,2.07-17.57,1.7-25.85-1.85-13.47-5.78-30.74-10.44-42.25,1.66-2.75,2.89-3.32,9-5.68,11.08-3.41,3.08-11.72,1.05-16.09,3.06-6.62,3-9.81,5.53-17.31,6.2-5.11.45-10.84,2.22-15.48,1.5-5.41-.84-9.4-3.19-15.18-3.5-11.61-.62-20.76,6.81-32,6.67-6.76-.09-7.71-3.81-14-5.31a79.4,79.4,0,0,0-16-2c-4.42,0-12.67,2.67-16.68.68-3.62-1.8-4.54-7.91-7.78-10.85-7.15-6.47-19.47-5.09-27.52-11.85-7.51-6.31-13.27-13.81-23.35-15.32-4.2-.63-8.77.82-12.66-0.67-3.37-1.29-6.5-4.85-9.34-6.66Z"/></svg>