<svg id="Layer_2" data-name="Layer 2" xmlns="http://www.w3.org/2000/svg" viewBox="0 0 5120 2000"><defs><style>.cls-1{fill:#008cff;fill-opacity:0.5;}</style></defs><title>city-controls</title><polygon id="enterior-1" class="cls-1" points="2466.5 1931.5 2466.5 1577 2461.67 1577.33 2451.5 906 2435.67 901 2399 817 2397 780.1 2375.75 735 2350.5 785.1 2350.5 819 2311.2 905 2292.5 916 2291.5 1056.33 2332.5 1056.33 2333.67 1931.5 2466.5 1931.5"/><polygon id="enterior-2" class="cls-1" points="2529.75 986.5 2572.06 1117.3 2583.02 1124.17 2597 1175.5 2610 1175.5 2618 1931.5 2466 1931.5 2466.5 1577 2461.67 1577.33 2455.58 1175.5 2472.5 1175 2479.26 1127.28 2491.71 1119.41 2529.75 986.5"/><rect id="enterior-3" class="cls-1" x="2618" y="948.81" width="157.84" height="982.69"/><rect id="enterior-4" class="cls-1" x="2796.84" y="1101.83" width="120.01" height="829.67"/><rect id="enterior-5" class="cls-1" x="2943.86" y="876.81" width="99.01" height="1054.69"/></svg>